<svg xmlns="http://www.w3.org/2000/svg" viewBox="0 0 306.5 64"><title>bitcoin</title><path d="M29.2,32.38l-1.93,7.73c2.38.59,9.72,2.95,10.81-1.41C39.21,34.15,31.58,33,29.2,32.38Z" style="fill:#fff"/><path d="M31.83,21.83l-1.75,7c2,.49,8.09,2.51,9.08-1.46C40.2,23.25,33.81,22.32,31.83,21.83Z" style="fill:#fff"/><path d="M39.73,1A32,32,0,1,0,63,39.75h0A32,32,0,0,0,39.73,1ZM46.1,27.45h0c-.46,3.12-2.19,4.63-4.48,5.16,3.15,1.64,4.75,4.16,3.23,8.52C43,46.53,38.45,47,32.46,45.85L31,51.68,27.5,50.8l1.43-5.74c-.91-.23-1.84-.47-2.8-.73L24.69,50.1l-3.51-.87,1.45-5.83-2.5-.65-4.57-1.14,1.74-4s2.59.69,2.55.64a1.28,1.28,0,0,0,1.61-.83l2.3-9.21.37.09a2.89,2.89,0,0,0-.36-.12l1.64-6.57a1.87,1.87,0,0,0-1.64-2c.06,0-2.55-.63-2.55-.63l.93-3.75L27,16.38v0l2.24.53,1.44-5.77,3.51.88-1.41,5.65c.94.21,1.89.43,2.81.66L37,12.73l3.51.88-1.44,5.77C43.5,20.9,46.74,23.19,46.1,27.45Z" style="fill:#fff"/><path d="M93.77,19.37a15.28,15.28,0,0,1,6.72,1.38,13.53,13.53,0,0,1,4.71,3.73A15.69,15.69,0,0,1,108,30a25.16,25.16,0,0,1,.89,6.8A27.7,27.7,0,0,1,101.15,56a26.48,26.48,0,0,1-8.42,5.83A25.71,25.71,0,0,1,82.2,64l-2.56,0a37.39,37.39,0,0,1-4.17-.36,48.88,48.88,0,0,1-5-1,25,25,0,0,1-5-1.78L79.52,2,92.07,0l-5,20.89a19.51,19.51,0,0,1,3.24-1.13,14.37,14.37,0,0,1,3.48-.41ZM83.25,54a11,11,0,0,0,5.34-1.38A14.07,14.07,0,0,0,92.93,49a18.59,18.59,0,0,0,2.87-5.23,17.8,17.8,0,0,0,1.05-6.08,12,12,0,0,0-1.3-6.07c-.86-1.45-2.46-2.19-4.78-2.19a15,15,0,0,0-3,.4,7.37,7.37,0,0,0-3.29,1.7L79.2,53.71l.85.16a6.34,6.34,0,0,0,.76.12,8.79,8.79,0,0,0,1,0h1.46Z" style="fill:#fff"/><path d="M121.85,62.87h-12L120,20.27h12.07Zm5.83-47.79a7.44,7.44,0,0,1-4.54-1.5,5.29,5.29,0,0,1-2-4.58,7.62,7.62,0,0,1,.69-3.2,8.55,8.55,0,0,1,1.83-2.59,9,9,0,0,1,2.63-1.74,8,8,0,0,1,3.2-.64A7.44,7.44,0,0,1,134,2.32a5.34,5.34,0,0,1,2,4.58,7.57,7.57,0,0,1-.69,3.2,8.43,8.43,0,0,1-1.82,2.59,8.8,8.8,0,0,1-2.63,1.74,7.9,7.9,0,0,1-3.2.64Z" style="fill:#fff"/><path d="M142.56,9.66l12.55-1.95L152,20.27h13.45l-2.43,9.88H149.69L146.13,45a16.85,16.85,0,0,0-.57,3.48,6.36,6.36,0,0,0,.4,2.8,3.51,3.51,0,0,0,1.74,1.82,8,8,0,0,0,3.6.65,19.17,19.17,0,0,0,3.77-.37,26.74,26.74,0,0,0,3.68-1l.89,9.24a43,43,0,0,1-5.26,1.54,30.32,30.32,0,0,1-6.72.65q-5.59,0-8.67-1.65a9.63,9.63,0,0,1-4.37-4.54,14.43,14.43,0,0,1-1.13-6.6,42.69,42.69,0,0,1,1.13-7.86l7.94-33.53Z" style="fill:#fff"/><path d="M165,45.86a29.91,29.91,0,0,1,1.78-10.37A25.51,25.51,0,0,1,171.84,27a23.91,23.91,0,0,1,8.06-5.75,25.76,25.76,0,0,1,10.56-2.11,27.91,27.91,0,0,1,6.52.69,26.39,26.39,0,0,1,5.23,1.82L198.08,31c-1.08-.44-2.2-.82-3.36-1.17a14.62,14.62,0,0,0-4.25-.53,11.88,11.88,0,0,0-9.52,4.13q-3.52,4.13-3.53,11.1a11.41,11.41,0,0,0,1.79,6.68q1.78,2.55,6.56,2.55a21,21,0,0,0,4.54-.48,22.35,22.35,0,0,0,3.89-1.21l.89,9.64a43.38,43.38,0,0,1-5,1.58,27.92,27.92,0,0,1-6.56.68,22.14,22.14,0,0,1-8.5-1.45,16.19,16.19,0,0,1-5.75-3.93,14.81,14.81,0,0,1-3.28-5.8,23.77,23.77,0,0,1-1-7Z" style="fill:#fff"/><path d="M218.2,64a19.6,19.6,0,0,1-7.45-1.3,13.76,13.76,0,0,1-5.22-3.64,15.74,15.74,0,0,1-3.12-5.55,22.41,22.41,0,0,1-1-7.08,31.26,31.26,0,0,1,1.57-9.72A27.53,27.53,0,0,1,207.6,28a24.89,24.89,0,0,1,7.53-6.37,20.71,20.71,0,0,1,10.2-2.47,19.7,19.7,0,0,1,7.42,1.3A13.86,13.86,0,0,1,238,24.07a15.82,15.82,0,0,1,3.11,5.55,22.46,22.46,0,0,1,1.05,7.08,32.29,32.29,0,0,1-1.53,9.72,28.08,28.08,0,0,1-4.54,8.74,23.77,23.77,0,0,1-7.49,6.35A21.27,21.27,0,0,1,218.2,64Zm6-34.66a7.57,7.57,0,0,0-4.69,1.54,13.23,13.23,0,0,0-3.4,3.89A19.2,19.2,0,0,0,214,39.9a22.17,22.17,0,0,0-.68,5.3,12.92,12.92,0,0,0,1.29,6.32c.87,1.51,2.43,2.27,4.7,2.27a7.53,7.53,0,0,0,4.7-1.54,13.29,13.29,0,0,0,3.4-3.89,19.25,19.25,0,0,0,2.07-5.14,22.47,22.47,0,0,0,.68-5.3,12.82,12.82,0,0,0-1.3-6.32q-1.3-2.26-4.7-2.27Z" style="fill:#fff"/><path d="M255.23,62.87h-12l10.12-42.6h12.08Zm5.82-47.79a7.42,7.42,0,0,1-4.53-1.5,5.31,5.31,0,0,1-2-4.58,7.6,7.6,0,0,1,.69-3.2A8.44,8.44,0,0,1,257,3.22a9,9,0,0,1,2.63-1.74,8,8,0,0,1,3.19-.64,7.44,7.44,0,0,1,4.54,1.5,5.34,5.34,0,0,1,2,4.58,7.68,7.68,0,0,1-.7,3.2,8.41,8.41,0,0,1-1.82,2.59,8.89,8.89,0,0,1-2.63,1.74A7.92,7.92,0,0,1,261.06,15.08Z" style="fill:#fff"/><path d="M274.07,22.21c.91-.27,1.93-.59,3-.93s2.35-.67,3.73-1a44.69,44.69,0,0,1,4.61-.73,51.87,51.87,0,0,1,5.79-.29q9.48,0,13.09,5.51t1.26,15.06l-5.51,23H288l5.34-22.52c.33-1.41.58-2.77.77-4.09a9.7,9.7,0,0,0,0-3.48,4.17,4.17,0,0,0-1.49-2.43,5.79,5.79,0,0,0-3.61-.93,24.36,24.36,0,0,0-4.78.49l-7.86,33H264.27Z" style="fill:#fff"/></svg>