<svg xmlns="http://www.w3.org/2000/svg" viewBox="0 0 404.65 98.18"><title>Coinhive</title><path d="M20.64,85.52,0,73.59V25.06L20.64,13.13C32,6.57,41.43,1.23,41.6,1.23s9.62,5.34,21,11.9L83.2,25.06V73.59L62.57,85.52c-11.34,6.54-20.79,11.9-21,11.9S32,92.08,20.64,85.52ZM41.38,69.46V49.06L58.87,39C68.5,33.44,76.34,28.84,76.3,28.75s-7.84-4.67-17.36-10.17L41.6,8.59,24,18.74,6.41,28.9V69.75l17.34,10c9.52,5.5,17.38,10,17.49,10S41.38,80.67,41.38,69.46Z" style="fill:#fff"/><path d="M141.8,43.8a7.18,7.18,0,0,0-4.1,1.12,8.87,8.87,0,0,0-2.7,2.88,12.44,12.44,0,0,0-1.48,3.89,21.09,21.09,0,0,0-.43,4.21,20.2,20.2,0,0,0,.43,4.1,12.68,12.68,0,0,0,1.4,3.78,8.06,8.06,0,0,0,2.63,2.77,7.22,7.22,0,0,0,4,1.08,7.49,7.49,0,0,0,5.65-2.05,9.71,9.71,0,0,0,2.48-5.51h9.86q-1,7.42-5.76,11.3t-12.17,3.89a20.38,20.38,0,0,1-7.67-1.4A17,17,0,0,1,128,69.93a17.84,17.84,0,0,1-3.82-6,20.83,20.83,0,0,1-1.37-7.67,24.79,24.79,0,0,1,1.26-8,18,18,0,0,1,3.71-6.41,17,17,0,0,1,6-4.21,20.3,20.3,0,0,1,8.06-1.51,23.36,23.36,0,0,1,6.37.86,17,17,0,0,1,5.47,2.63,13.59,13.59,0,0,1,5.65,10.62h-10Q148.35,43.8,141.8,43.8Z" style="fill:#fff"/><path d="M165.55,47.65a17,17,0,0,1,9.94-10.15,21.26,21.26,0,0,1,7.92-1.4,21.54,21.54,0,0,1,8,1.4,17,17,0,0,1,10,10.15,22.87,22.87,0,0,1,1.37,8.1,22.57,22.57,0,0,1-1.37,8.06A17.48,17.48,0,0,1,197.45,70a16.93,16.93,0,0,1-6.08,3.92,22.07,22.07,0,0,1-8,1.37,21.77,21.77,0,0,1-7.92-1.37,17,17,0,0,1-6-3.92,17.45,17.45,0,0,1-3.89-6.16,22.54,22.54,0,0,1-1.37-8.06A22.84,22.84,0,0,1,165.55,47.65Zm9.29,12.46a11.58,11.58,0,0,0,1.48,3.82,7.84,7.84,0,0,0,2.77,2.7,8.45,8.45,0,0,0,4.32,1,8.66,8.66,0,0,0,4.36-1,7.77,7.77,0,0,0,2.81-2.7,11.61,11.61,0,0,0,1.48-3.82,21.78,21.78,0,0,0,.43-4.36,22.33,22.33,0,0,0-.43-4.39,11.23,11.23,0,0,0-1.48-3.82,8.2,8.2,0,0,0-2.81-2.7,8.43,8.43,0,0,0-4.36-1,7.86,7.86,0,0,0-7.09,3.74,11.2,11.2,0,0,0-1.48,3.82,22.33,22.33,0,0,0-.43,4.39A21.78,21.78,0,0,0,174.84,60.11Z" style="fill:#fff"/><path d="M209.62,31.34V22.92h10.22v8.42Zm10.22,5.76V74.33H209.62V37.1Z" style="fill:#fff"/><path d="M237.63,37.1v5.18h.22a11.73,11.73,0,0,1,5-4.72,14.58,14.58,0,0,1,6.34-1.48,17.37,17.37,0,0,1,6.73,1.12,10,10,0,0,1,4.14,3.1,12,12,0,0,1,2.12,4.82,30.06,30.06,0,0,1,.61,6.3v22.9H252.6v-21q0-4.61-1.44-6.88t-5.11-2.27q-4.18,0-6,2.48t-1.87,8.17V74.33H227.91V37.1Z" style="fill:#fff"/><path d="M280.83,22.92V42.29H281a11.84,11.84,0,0,1,5-4.72,13.41,13.41,0,0,1,5.9-1.48,17.37,17.37,0,0,1,6.73,1.12,10,10,0,0,1,4.14,3.1,12,12,0,0,1,2.12,4.82,30.06,30.06,0,0,1,.61,6.3v22.9H295.3v-21q0-4.61-1.44-6.88t-5.11-2.27q-4.18,0-6,2.48t-1.87,8.17V74.33H270.6V22.92Z" style="fill:#fff"/><path d="M313.58,31.34V22.92h10.22v8.42Zm10.22,5.76V74.33H313.58V37.1Z" style="fill:#fff"/><path d="M341.09,74.33,328.34,37.1h10.73l7.85,25.42h.14l7.85-25.42h10.15l-12.6,37.22Z" style="fill:#fff"/><path d="M380.26,65.4q2.3,2.23,6.62,2.23a9.11,9.11,0,0,0,5.33-1.55,6.42,6.42,0,0,0,2.74-3.28h9q-2.16,6.7-6.62,9.58a19.5,19.5,0,0,1-10.8,2.88,21.27,21.27,0,0,1-7.92-1.4,16.46,16.46,0,0,1-6-4,18,18,0,0,1-3.78-6.19,22.64,22.64,0,0,1-1.33-7.92A21.71,21.71,0,0,1,368.88,48a18,18,0,0,1,9.9-10.37,19.28,19.28,0,0,1,7.74-1.51,17.7,17.7,0,0,1,8.28,1.84,16.53,16.53,0,0,1,5.8,4.93,20.3,20.3,0,0,1,3.28,7.06,26.33,26.33,0,0,1,.72,8.28H377.73Q378,63.17,380.26,65.4Zm11.56-19.58q-1.84-2-5.58-2a8.9,8.9,0,0,0-4.07.83,7.75,7.75,0,0,0-2.59,2.05,7.5,7.5,0,0,0-1.37,2.59,11.7,11.7,0,0,0-.47,2.45h16.63A11.82,11.82,0,0,0,391.81,45.81Z" style="fill:#fff"/></svg>