<svg xmlns="http://www.w3.org/2000/svg" viewBox="0 0 282 75"><title>Monero</title><path d="M37.3.35a36.93,36.93,0,0,0-35,48.56h11v-31l24,24,24-24v31h11A36.93,36.93,0,0,0,37.3.35" style="fill:#fff"/><path d="M21.32,36.9V56.43H5.77a36.91,36.91,0,0,0,63.07,0H53.28V36.9l-16,16Z" style="fill:#fff"/><path d="M272.71,47.76a9.52,9.52,0,0,1-7.1,3,10,10,0,0,1-6.53-2.32,9.84,9.84,0,0,1-3.67-8.08,10.34,10.34,0,0,1,2.92-7.56,10.07,10.07,0,0,1,14.36.07,10.28,10.28,0,0,1,3,7.45,10.25,10.25,0,0,1-2.94,7.43m4.1-18.94a15.29,15.29,0,0,0-11.24-4.73,16.11,16.11,0,0,0-13.93,8,16.46,16.46,0,0,0,2.45,19.52,16.07,16.07,0,0,0,22.77.13,15.57,15.57,0,0,0,4.64-11.42,15.76,15.76,0,0,0-4.7-11.54" style="fill:#fff"/><path d="M238.31,36c-.74.52-1.09.77-3.06.77h-7.74V30.13H235a5.13,5.13,0,0,1,2.38.34,3.05,3.05,0,0,1,1.47,1.12,3.09,3.09,0,0,1,.55,1.84,2.88,2.88,0,0,1-1.1,2.54m.93,6.09a9.34,9.34,0,0,0,4.61-3.24,8.94,8.94,0,0,0,1.52-5.33A9.72,9.72,0,0,0,244,28.23a7.84,7.84,0,0,0-3.66-3.17q-2.27-1-7.64-1H221.36V56.44h6.15V42.75h5.37l7.28,13.69h6.73l-7.65-14.38Z" style="fill:#fff"/><path d="M193.78,24.09h21v6H199.89v6.62h14.85v5.92H199.89v7.73h14.85v6h-21Z" style="fill:#fff"/><path d="M161.29,24.09h5.89l13.87,21.28V24.09h6.15V56.43h-5.91L167.44,35.22V56.43h-6.15Z" style="fill:#fff"/><path d="M147.65,47.76a9.52,9.52,0,0,1-7.1,3A10,10,0,0,1,134,48.45a9.84,9.84,0,0,1-3.67-8.08,10.34,10.34,0,0,1,2.92-7.56,10.07,10.07,0,0,1,14.36.07,10.28,10.28,0,0,1,3,7.45,10.25,10.25,0,0,1-2.94,7.43m4.1-18.94a15.29,15.29,0,0,0-11.24-4.73,16.11,16.11,0,0,0-13.93,8A16.46,16.46,0,0,0,129,51.65a16.07,16.07,0,0,0,22.77.13,15.57,15.57,0,0,0,4.64-11.42,15.76,15.76,0,0,0-4.7-11.54" style="fill:#fff"/><path d="M89.69,24.09h6l7.47,22.56,7.59-22.56h5.93l5.45,32.34h-5.94L112.75,36l-6.88,20.42h-5.43L93.65,36,90.11,56.43h-6Z" style="fill:#fff"/></svg>