<?xml version="1.0" encoding="UTF-8"?>
<!DOCTYPE svg  PUBLIC '-//W3C//DTD SVG 1.1//EN'  'http://www.w3.org/Graphics/SVG/1.1/DTD/svg11.dtd'>
<svg enable-background="new 0 0 160 160" version="1.1" viewBox="0 0 160 160" xml:space="preserve" xmlns="http://www.w3.org/2000/svg">
<g fill="#231F20">
	<path d="m12.522 63.969h2.742l4.3-4.298s-2.451-2.352-2.468-2.355h-3.919c-0.025 1e-3 -3.152 2.44-3.154 2.448v1.688c2e-3 0.01 2.483 2.514 2.499 2.517z"/>
	<path d="m48.1 50.894l-0.907 1.941 2.596-2e-3v-5.067h-2.273c0.695 0.93 0.593 3.004 0.587 3.093l-3e-3 0.035z"/>
	<path d="m69.275 57.239l-0.139-0.633c-6e-3 -0.01-0.017-0.023-0.022-0.031-0.115-0.118-0.51-0.49-1.01-0.96-0.606-0.57-1.359-1.277-1.995-1.896-1.389-1.35-1.931-4.024-1.209-5.959 0.544-1.456 3.466-10.742 4.161-12.951l-9.353-2.859-0.294 0.9-4e-3 9e-3c-0.015 0.066 0.03 0.138 0.189 0.34l0.024 0.028c0.165 0.213 0.395 0.499 0.364 0.898-0.061 0.858-1.349 1.385-1.9 1.573-0.341 0.117-0.568 0.301-0.678 0.543-0.133 0.303-0.099 0.711 0.105 1.188l0.029 0.065c0.041 0.096 0.037 0.207-0.012 0.299l-0.07 0.138c-6e-3 7e-3 -0.012 0.018-0.017 0.027-0.191 0.296-1.415 3.551-1.878 4.776-0.125 0.339-0.246 0.653-0.352 0.934-0.121 0.312-0.245 0.637-0.324 0.856-0.762 2.078-3.396 2.103-3.506 2.103h-0.459c-0.091 0-0.174-0.034-0.24-0.089v6.295s1.423-7e-3 1.494-7e-3c1.012 0 1.52 0.166 1.854 0.275 0.02 8e-3 5.268 1.585 5.268 1.585 0.717 0.041 2.87-0.03 3.414 0.066 0.801 0.144 1.669 0.67 2.087 1.088 0.502 0.504 0.847 1.158 0.86 2.04 8e-3 0.442 0.422 0.669 1.079 0.649h1.444l1.09-1.29zm-10.4-9.029c-0.353 0.889-2.135 0.222-1.805-0.609 0 0 3.347-9.336 3.584-10.071 0.225-0.694 2.085-0.06 1.845 0.609-0.12 0.445-3.3 9.256-3.624 10.071z"/>
	<path d="m58.185 46.357s-0.528 1.417-0.613 1.661c-0.076 0.219 0.599 0.456 0.682 0.226 0.089-0.208 0.576-1.484 0.613-1.597 0.094-0.274-0.585-0.504-0.682-0.29z"/>
	<path d="m58.983 44.211s-0.556 1.396-0.645 1.639c-0.077 0.208 0.629 0.454 0.705 0.238 0.091-0.211 0.547-1.485 0.585-1.594 0.109-0.279-0.576-0.468-0.645-0.283z"/>
	<path d="m59.693 42.142s-0.524 1.307-0.608 1.551c-0.081 0.244 0.616 0.489 0.705 0.239 0.091-0.208 0.51-1.396 0.548-1.505 0.157-0.344-0.601-0.523-0.645-0.285z"/>
	<path d="m60.435 40.085s-0.5 1.255-0.583 1.497c-0.083 0.245 0.615 0.491 0.707 0.239 0.087-0.207 0.484-1.344 0.522-1.452 0.158-0.343-0.6-0.521-0.646-0.284z"/>
	<path d="m61.167 37.997s-0.502 1.27-0.583 1.515c-0.084 0.245 0.613 0.489 0.704 0.237 0.089-0.206 0.487-1.36 0.525-1.472 0.155-0.34-0.601-0.518-0.646-0.28z"/>
	<path d="m17.628 50.131c0.379 0 0.938-0.333 0.986-0.362 0.233-0.133 1.512-0.998 1.713-1.154 0.309-0.245 0.551-0.323 1.006-0.323 0.073 0 2.046 7e-3 2.298 3e-3l1.301-1.11 0.042-0.04c1.159-1.048 4.974-4.501 5.447-4.968 0.31-0.308 1.675-3.238 2.26-4.488l0.044-0.098c0.101-0.214 0.193-0.411 0.276-0.586l0.048-0.1c0.059-0.126 0.186-0.209 0.325-0.209h0.752l2.65-2.12c0-0.039 0-0.082 4e-3 -0.124 0.03-0.296 0.195-0.561 0.449-0.729 0.157-0.1 0.327-0.151 0.507-0.151 0.078 0 0.152 8e-3 0.228 0.025l1.97-1.869c0.468-0.416 0.56-0.822 0.312-1.349l-0.056-0.119c-0.064-0.14-0.032-0.307 0.084-0.411l0.097-0.089c1.734-1.579 3.115-2.835 3.115-2.835l0.074-0.066c0.066-0.061 0.153-0.093 0.244-0.093 0.034 0 0.066 4e-3 0.099 0.013l15.47 4.315 10.251 3.135 3.843-1.358c0.332-1.152 1.054-3.673 1.231-4.273l0.021-0.072c0.083-0.277 0.188-0.625 0.125-0.738-0.018-0.029-0.09-0.122-0.409-0.215-1.021-0.293-11.378-2.555-11.995-2.691-0.01 0-0.02-1e-3 -0.032-1e-3 -0.373 0-0.593 0.17-0.677 0.526-0.034 0.145-0.066 0.3-0.101 0.468-0.184 0.916-0.466 2.304-1.67 2.304-0.152 0-0.312-0.026-0.474-0.071l-0.025-8e-3 -15.216-5.668-5.987 5.423c-0.066 0.06-0.151 0.092-0.242 0.092-0.056 0-0.813-0.612-1.086-0.368-0.413 0.368-0.716 0.638-0.724 0.646l-1.714 1.593c0.073 0.36-0.016 0.691-0.254 0.929-0.182 0.181-0.616 0.353-0.983 0.148l-2.881 2.586c-0.284 0.282 0.258 0.813-0.018 1.177-0.276 0.36-0.761 0.271-0.816 0.322 0 0-2.899 2.525-2.945 2.538l-0.926 0.124c-0.311 0.272-3.058 2.779-3.32 2.998-0.145 0.118-0.728 0.608-0.534 1.16 0.109 0.319 0.232 0.476 0.031 0.655 0 0-1.795 1.58-2.532 2.333-0.357 0.37-0.159 1.187-0.672 1.623-0.601 0.506-1.779 1.473-1.94 1.595-0.575 0.559-0.545 0.786-0.218 1.259 0.5 0.606 0.82 0.866 1.144 0.866zm45.971-22.704c0.607 0 1.103 0.491 1.103 1.089 0 0.601-0.495 1.09-1.103 1.09s-1.103-0.489-1.103-1.09c1e-3 -0.598 0.495-1.089 1.103-1.089z"/>
	<path d="m11.781 68.116c0.087-0.037 0.087-0.112 0.087-0.159v-3.675l-0.98-0.985v5.037l0.893-0.218z"/>
	<path d="m14.615 55.306v0.715l-0.644 0.583h3.137c0.191 0 0.423 0.092 0.562 0.225l1.857 1.797 0.5 0.48c0.042-0.091 0.084-0.212 0.092-0.358 3e-3 -0.065 5e-3 -0.123 9e-3 -0.175 0.01-0.155 0.02-0.268 0.021-0.49 7e-3 -0.819 0.712-1.188 1.405-1.188h3.063c0.316 0 0.51-0.271 0.735-0.744 0.04-0.085 0.075-0.162 0.113-0.222l0.032-0.05c0.161-0.268 0.429-0.708 1.354-0.708h5.658l3.211 1.526c0.797 8e-3 6.398 0.058 6.728 0.058 0.461 0-0.039 1.53 2.124 1.53l13.028-3e-3c0.48 0 0.744-0.357 0.883-0.654 0.216-0.47 0.634-0.74 1.149-0.74h1.305l0.106 2.308v3.672c4e-3 0.072 6e-3 0.159 0.018 0.182 1e-3 0 0.557 0.021 0.557 0.021 0.492-0.016 0.642-0.022 1.32-0.656 0.772-0.72 2.627-2.762 2.766-2.947 0.066-0.086 0.093-0.174 0.077-0.26-0.019-0.128-0.097-0.353-0.327-0.403-0.483-0.109-0.485-0.741-0.491-0.937-0.038-1.353-1.405-2.267-2.553-2.411-0.588-0.075-3.263-0.064-3.287-0.066l-3.879-1.171c-0.012-5e-3 -1.427-0.429-1.489-0.451-0.282-0.092-0.706-0.29-1.572-0.29-0.066 0-8.565 0.025-8.622 0-1.149-0.535-1.373-1.538-1.25-2.613-0.485-0.197-0.627-0.477-0.718-0.858-0.129 7e-3 -0.639-0.01-0.639-0.01l-0.026-0.165c-6e-3 -0.028-0.137-0.728-1.008-0.787l-0.296-0.014-0.021-0.143c-0.057-0.356-8e-3 -1.439-0.835-1.408l-0.185-0.013-0.097-0.146c-0.035-0.055-0.065-0.108-0.096-0.159-0.127-0.218-0.189-0.328-0.891-0.347-0.04-1e-3 -0.256-1e-3 -1.057-1e-3 -0.989 0-2.719 1e-3 -2.719 1e-3 -0.01 0-0.952 0.012-1.044 0.643l-0.043 0.306h-7.219l-1.447 1.235s-2.271 0.014-2.423 7e-3c-0.081-2e-3 -0.532 0.022-0.659 0.122-0.236 0.187-1.903 1.28-1.945 1.304-0.235 0.147-0.528 0.33-1.097 0.394-0.064 7e-3 -0.129 0.017-0.191 0.011-1.343-0.11-1.578-1.214-2.141-1.155-0.248 0.026-0.407 0.291-0.5 0.505-0.095 0.214-0.699 1.702-0.805 2.187-0.097 0.451-0.4 2.25-0.474 2.929 0.182 0.015 0.88 2e-3 0.88 2e-3zm42.324 0.376c0.512 0 0.926 0.408 0.926 0.914s-0.414 0.916-0.926 0.916c-0.51 0-0.927-0.41-0.927-0.916s0.417-0.914 0.927-0.914zm-11.752-1.008c0.512 0 0.929 0.41 0.929 0.917 0 0.503-0.417 0.914-0.929 0.914-0.51 0-0.926-0.41-0.926-0.914 0-0.508 0.416-0.917 0.926-0.917zm-15.479-2.733c0.266 0 1.675 0.069 2.661 0.521 0.229 0.122 1.219 0.698 1.817 1.115 0.6 0.417 2.021 0.768 2.824 0.457 0.149-0.057 0.367-0.158 0.653-0.121 0.716 0.14 0.676 1.087-0.108 1.236-1.576 0.262-2.286 0.06-3.086-0.178-0.657-0.196-1.428-0.731-2.335-1.306-0.905-0.576-2.181-0.576-2.427-0.576v-1.148zm-5.49 0.045h2.845v1.094h-2.845v-1.094zm-5.781 0.7c-2e-3 -0.593 0.881-0.683 1.211-0.694 0.331-0.013 2.131 0 2.131 0v1.088s-0.866-0.01-1.273 0c-0.684 0.014-0.979 0.014-0.979 0.267 0 0.251-9e-3 1.561-9e-3 1.561h-1.08c-1e-3 0-1e-3 -1.647-1e-3 -2.222z"/>
	<path d="m53.349 66.413c0 0.152 0.082 0.278 0.18 0.278h6.526c0.098 0 0.18-0.126 0.18-0.278v-1.507h2.578l4.776-5.664h-1.148c0.01 0.142 2e-3 0.362-0.061 0.452-0.144 0.201-1.866 2.241-2.654 2.979-0.741 0.692-1.078 1.11-2.046 1.11-0.02 0-0.401 2e-3 -0.401 2e-3 -0.637 0-1.017-0.232-1.031-0.727v-5.461h-0.615c-0.234 0-0.394 0.103-0.496 0.326-0.313 0.679-0.873 1.069-1.538 1.069l-13.026 2e-3c-2.368 0-2.32-1.502-2.565-1.529-0.067-7e-3 -6.433-0.06-6.433-0.06-0.03 0-3.254-1.524-3.254-1.524h-5.469c-0.517 0-0.611 0.158-0.734 0.358-0.014 0.026-0.029 0.045-0.04 0.066-0.016 0.026-0.044 0.087-0.074 0.146-0.18 0.377-0.553 1.156-1.387 1.156h-3.063c-8e-3 0-0.679 6e-3 -0.686 0.487-0.021 0.971-0.084 1.298-0.489 1.755l4e-3 -0.014c-0.121 0.128-4.949 4.951-5.01 5.021-0.252 0.287-0.296 0.489-0.296 0.492-0.019 0.127-0.017 0.219 0.01 0.31 0.04 0.135 0.129 0.329 0.157 0.386 0.021 0.043 0.127 0.23 0.591 0.986l0.222 0.356c0.034 0.055 0.036 0.123 4e-3 0.179s-0.093 0.09-0.157 0.09h-0.746c-0.064 0-0.181 0-0.181 0.356v0.056c0 0.355 0.116 0.355 0.181 0.355h1.442c0.063 0 0.119 0.032 0.151 0.086 0 0 0.426 0.733 0.439 0.758h9.87l3.279-3.73h5.215v-0.627h3.188v1.073h13.887v-1.073h0.72v1.504z"/>
	<path d="m17.157 102.12l2.407-2.333-4.3-4.298h-2.742c-0.016 3e-3 -2.5 2.458-2.5 2.458-9e-3 0.012 0 1.748 0 1.748 2e-3 9e-3 3.129 2.425 3.154 2.426 1e-3 -1e-3 3.973 4e-3 3.981-1e-3z"/>
	<path d="m49.789 111.69v-5.067l-2.596-1e-3 0.907 1.941 2e-3 0.034c6e-3 0.089 0.108 2.164-0.587 3.093h2.274z"/>
	<path d="m68.104 103.84c0.5-0.47 0.895-0.842 1.01-0.96 6e-3 -8e-3 0.017-0.021 0.022-0.031l0.139-0.633-1.086-1.292h-1.444c-0.657-0.02-1.071 0.208-1.079 0.649-0.014 0.881-0.358 1.536-0.86 2.04-0.418 0.418-1.286 0.945-2.087 1.088-0.544 0.097-2.697 0.026-3.414 0.066 0 0-5.248 1.577-5.268 1.585-0.335 0.11-0.843 0.275-1.854 0.275-0.071 0-1.494-7e-3 -1.494-7e-3v6.294c0.066-0.055 0.149-0.089 0.24-0.089h0.459c0.109 0 2.744 0.025 3.506 2.103 0.079 0.219 2.641 6.732 2.641 6.732 0.049 0.093 0.053 0.204 0.012 0.299l-0.029 0.065c-0.204 0.477-0.238 0.885-0.105 1.188 0.109 0.243 0.337 0.426 0.678 0.543 0.552 0.188 1.84 0.715 1.9 1.573 0.03 0.399-0.574 1.275-0.574 1.275l0.294 0.9 9.353-2.859c-0.695-2.209-3.617-11.495-4.161-12.951-0.722-1.935-0.18-4.609 1.209-5.959 0.633-0.617 1.386-1.324 1.992-1.894zm-7.45 18.084c-0.237-0.735-3.584-10.071-3.584-10.071-0.33-0.831 1.452-1.498 1.805-0.609 0.324 0.815 3.505 9.626 3.624 10.071 0.24 0.669-1.621 1.304-1.845 0.609z"/>
	<path d="m58.867 112.81c-0.037-0.112-0.524-1.388-0.613-1.596-0.083-0.23-0.758 7e-3 -0.682 0.226 0.085 0.244 0.613 1.661 0.613 1.661 0.097 0.214 0.776-0.016 0.682-0.291z"/>
	<path d="m58.338 113.61c0.089 0.243 0.645 1.639 0.645 1.639 0.069 0.186 0.754-3e-3 0.646-0.283-0.038-0.109-0.494-1.382-0.585-1.594-0.077-0.215-0.783 0.03-0.706 0.238z"/>
	<path d="m59.084 115.77c0.084 0.244 0.608 1.551 0.608 1.551 0.044 0.237 0.802 0.059 0.645-0.284-0.038-0.109-0.457-1.298-0.548-1.505-0.088-0.252-0.786-6e-3 -0.705 0.238z"/>
	<path d="m59.852 117.88c0.083 0.241 0.583 1.497 0.583 1.497 0.046 0.238 0.804 0.06 0.646-0.284-0.038-0.108-0.436-1.245-0.522-1.451-0.092-0.252-0.79-7e-3 -0.707 0.238z"/>
	<path d="m60.583 119.95c0.081 0.245 0.583 1.515 0.583 1.515 0.046 0.238 0.802 0.06 0.646-0.28-0.038-0.111-0.437-1.266-0.525-1.472-0.09-0.253-0.787-8e-3 -0.704 0.237z"/>
	<path d="m74.698 130.86c-0.178-0.6-0.899-3.122-1.231-4.273l-3.843-1.359-10.251 3.136-15.47 4.315c-0.032 9e-3 -0.064 0.013-0.099 0.013-0.091 0-0.178-0.032-0.244-0.093l-3.286-2.991c-0.116-0.104-0.148-0.271-0.084-0.411l0.056-0.117c0.248-0.527 0.156-0.934-0.312-1.349l-1.97-1.869c-0.075 0.017-0.149 0.024-0.228 0.024-0.18 0-0.35-0.051-0.507-0.151-0.254-0.168-0.419-0.433-0.449-0.729-4e-3 -0.043-4e-3 -0.085-4e-3 -0.124l-2.65-2.12h-0.752c-0.14 0-0.267-0.083-0.325-0.209l-0.048-0.101c-0.083-0.175-0.176-0.372-0.276-0.586l-0.044-0.098c-0.585-1.25-1.95-4.18-2.26-4.488-0.474-0.467-4.288-3.92-5.447-4.968l-0.042-0.04-1.301-1.11c-0.252-4e-3 -0.854-0.012-1.366-0.012-0.313 0-0.542 3e-3 -0.68 8e-3 -0.095 4e-3 -0.179 7e-3 -0.252 7e-3 -0.455 0-0.697-0.079-1.006-0.323-0.201-0.156-1.479-1.021-1.713-1.154-0.049-0.029-0.607-0.362-0.986-0.362-0.324 0-0.645 0.26-1.145 0.866-0.327 0.474-0.357 0.701 0.218 1.259 0.161 0.122 1.34 1.089 1.94 1.595 0.513 0.437 0.314 1.253 0.672 1.623 0.737 0.754 2.532 2.334 2.532 2.334 0.201 0.18 0.078 0.336-0.031 0.655-0.193 0.552 0.39 1.041 0.534 1.16 0.263 0.219 3.01 2.726 3.32 2.998l0.926 0.124c0.046 0.014 2.945 2.539 2.945 2.539 0.056 0.05 0.54-0.038 0.816 0.322 0.275 0.364-0.267 0.895 0.018 1.177l2.881 2.586c0.367-0.205 0.802-0.033 0.983 0.148 0.238 0.237 0.327 0.569 0.254 0.929l1.714 1.593c8e-3 8e-3 0.311 0.278 0.724 0.646 0.272 0.245 1.03-0.367 1.086-0.367 0.091 0 0.176 0.032 0.242 0.092l5.987 5.423 15.216-5.668 0.025-8e-3c0.162-0.044 0.321-0.071 0.474-0.071 1.204 0 1.486 1.388 1.67 2.304 0.034 0.168 0.066 0.323 0.101 0.468 0.084 0.356 0.304 0.526 0.677 0.526 0.013 0 0.022-1e-3 0.032-1e-3 0.617-0.136 10.974-2.398 11.995-2.691 0.319-0.093 0.392-0.186 0.409-0.215 0.063-0.114-0.042-0.461-0.125-0.739l-0.02-0.073zm-11.099 1.17c-0.608 0-1.103-0.491-1.103-1.089 0-0.601 0.494-1.09 1.103-1.09 0.607 0 1.103 0.489 1.103 1.09 0 0.599-0.495 1.089-1.103 1.089z"/>
	<path d="m11.781 91.344l-0.894-0.217v5.037l0.98-0.985v-3.675c1e-3 -0.047 1e-3 -0.123-0.086-0.16z" display="none"/>
	<path d="m17.848 108.63c0.568 0.064 0.861 0.247 1.097 0.394 0.042 0.023 1.709 1.117 1.945 1.304 0.127 0.1 0.578 0.124 0.659 0.122 0.151-7e-3 2.423 7e-3 2.423 7e-3l1.447 1.235h7.219l0.043 0.306c0.092 0.631 1.034 0.643 1.044 0.643 0 0 3.735 2e-3 3.775 0 0.701-0.019 0.764-0.128 0.891-0.346 0.03-0.051 0.192-0.305 0.192-0.305l0.185-0.012c0.827 0.031 0.778-1.052 0.835-1.408l0.021-0.143 0.296-0.014c0.871-0.059 1.002-0.758 1.008-0.787l0.026-0.165s0.51-0.017 0.639-0.01c0.091-0.381 0.232-0.662 0.718-0.858-0.123-1.076 0.101-2.078 1.25-2.613 0.057-0.025 8.556 0 8.622 0 0.866 0 1.29-0.188 1.572-0.28 0.063-0.022 5.368-1.631 5.368-1.631 0.024-1e-3 2.699 9e-3 3.287-0.066 1.147-0.144 2.515-1.058 2.553-2.411 6e-3 -0.196 8e-3 -0.828 0.491-0.937 0.23-0.05 0.309-0.275 0.327-0.403 0.016-0.085-0.011-0.173-0.077-0.26-0.139-0.185-1.993-2.227-2.766-2.947-0.679-0.634-0.828-0.64-1.32-0.656 0 0-0.576 0.021-0.577 0.021-0.012 0.023 0 6.163 0 6.163h-1.408c-0.516 0-0.934-0.271-1.149-0.74-0.139-0.297-0.402-0.654-0.883-0.654l-13.028-2e-3c-2.163 0-1.663 1.53-2.124 1.53-0.329 0-5.931 0.05-6.728 0.058l-3.211 1.526h-5.658c-0.926 0-1.193-0.44-1.354-0.708l-0.032-0.05c-0.038-0.061-0.073-0.137-0.113-0.223-0.226-0.472-0.419-0.743-0.735-0.743h-3.063c-0.693 0-1.398-0.369-1.405-1.188-2e-3 -0.223-0.012-0.335-0.021-0.49-4e-3 -0.052-6e-3 -0.11-9e-3 -0.175-8e-3 -0.146-0.05-0.267-0.092-0.358l-0.5 0.48-1.857 1.797c-0.139 0.133-0.37 0.225-0.562 0.225h-3.139l0.576 0.583v0.692s-0.629 0.01-0.809 0.023c0.073 0.679 0.377 2.479 0.474 2.929 0.105 0.485 0.71 1.973 0.805 2.187 0.093 0.215 0.252 0.479 0.5 0.505 0.563 0.059 0.798-1.045 2.141-1.155 0.062-9e-3 0.127 1e-3 0.191 8e-3zm39.091-6.683c0.512 0 0.926 0.409 0.926 0.916 0 0.506-0.414 0.914-0.926 0.914-0.51 0-0.927-0.408-0.927-0.914 0-0.507 0.417-0.916 0.927-0.916zm-11.752 1.008c0.512 0 0.929 0.41 0.929 0.914 0 0.507-0.417 0.917-0.929 0.917-0.51 0-0.926-0.41-0.926-0.917 0-0.504 0.416-0.914 0.926-0.914zm-15.479 3.414c0.246 0 1.521 0 2.427-0.576 0.907-0.575 1.678-1.109 2.335-1.306 0.8-0.237 1.51-0.44 3.086-0.178 0.784 0.149 0.824 1.096 0.108 1.236-0.286 0.037-0.504-0.064-0.653-0.121-0.804-0.312-2.225 0.039-2.824 0.456-0.599 0.418-1.588 0.993-1.817 1.116-0.986 0.451-2.396 0.521-2.661 0.521v-1.148zm-5.49 9e-3h2.845v1.095h-2.845v-1.095zm-5.781-1.827h1.08s9e-3 1.31 9e-3 1.561c0 0.253 0.296 0.253 0.979 0.267 0.407 0.011 1.273 0 1.273 0v1.089s-1.8 0.013-2.131 0c-0.33-0.011-1.213-0.101-1.211-0.694 1e-3 -0.577 1e-3 -2.223 1e-3 -2.223z"/>
	<path d="m30.34 93.926l-3.279-3.73h-9.87c-0.014 0.025-0.439 0.757-0.439 0.757-0.032 0.054-0.089 0.086-0.151 0.086h-1.443c-0.064 0-0.181 0-0.181 0.355v0.056c0 0.356 0.116 0.356 0.181 0.356h0.746c0.064 0 0.125 0.034 0.157 0.09s0.03 0.124-4e-3 0.179l-0.222 0.356c-0.464 0.755-0.57 0.943-0.591 0.986-0.028 0.058-0.117 0.25-0.157 0.386-0.026 0.091-0.028 0.183-0.01 0.31 0 2e-3 0.044 0.205 0.296 0.492 0.061 0.069 4.889 4.893 5.01 5.021l-4e-3 -0.014c0.405 0.457 0.468 0.785 0.489 1.755 7e-3 0.481 0.678 0.486 0.686 0.486h3.063c0.834 0 1.207 0.779 1.387 1.156 0.03 0.059 0.059 0.12 0.074 0.146 0.011 0.021 0.026 0.04 0.04 0.066 0.123 0.2 0.218 0.358 0.734 0.358h5.469s3.224-1.524 3.254-1.524c0 0 6.365-0.053 6.433-0.06 0.245-0.026 0.197-1.529 2.565-1.529l13.026 2e-3c0.665 0 1.226 0.39 1.538 1.069 0.103 0.222 0.262 0.326 0.496 0.326h0.615s0.066-5.158 0.076-5.45l2e-3 -0.011c0.015-0.495 0.316-0.727 0.953-0.727 0 0 0.382 2e-3 0.401 2e-3 0.968 0 1.305 0.418 2.046 1.11 0.788 0.738 2.511 2.778 2.654 2.979 0.063 0.09 0.07 0.31 0.061 0.452h1.148l-4.776-5.664h-2.578v-1.507c0-0.151-0.082-0.277-0.18-0.277h-6.526c-0.098 0-0.18 0.125-0.18 0.277v1.507h-0.72v-1.074h-13.886v1.074h-3.188v-0.627h-5.215z"/>
	<rect x="110.86" y="58.164" width="4.735" height="3.742"/>
	<rect x="123.17" y="58.164" width="4.735" height="2.806"/>
	<rect x="110.47" y="94.293" width="4.735" height="7.482"/>
	<rect x="98.161" y="94.293" width="4.735" height="7.482"/>
	<path d="m79.655 1c-0.094 0-0.186 7e-3 -0.278 7e-3 -0.146 9.133-1.212 23.615-1.199 23.459 0.49-0.012 1.7-0.091 2.193-0.091 0.478 0 0.948 0.024 1.423 0.036 19.28 0.467 36.166 10.383 46.131 25.229h-5.875c-9.191-12.005-23.569-19.922-39.853-20.476-0.607-0.021-1.213-0.045-1.825-0.045-0.628 0-1.865 0.124-2.606 0.171 0.019-0.203-1.284 21.009-7.461 33.462-8.406 16.945-52.75 15.595-69.959 17.004 21.42 3.173 54.112 0.208 65.379 11.931 7.434 6.563 10.494 23.736 11.989 40.533 0.684 0.027 1.966 0.089 2.656 0.089 0.674 0 1.342-0.025 2.01-0.05 16.854-0.631 31.646-9.148 40.736-21.915h5.759c-9.786 15.592-27.058 26.116-46.871 26.667-0.545 0.016-1.086 0.041-1.634 0.041-0.563 0-1.734 0.016-2.295 0-3e-3 -0.042 0.821 14.327 0.856 21.929 0.242 4e-3 0.479 0.02 0.722 0.02h1e-3c0.032 0 0.064-2e-3 0.098-2e-3 0.191-4e-3 0.382-0.014 0.574-0.016 43.873-0.359 79.327-35.574 79.327-78.983 1e-3 -43.631-35.815-79-79.998-79zm58.672 78.035v1.87h-5.683v2.806h7.576v1.871h-8.523c-1.263 0-1.895-0.624-1.895-1.871v-7.482c0-1.247 0.632-1.871 1.895-1.871h8.523v1.871h-7.576v2.806h5.683zm-18.383 22.74v-9.353h2.842v9.353h7.576v1.871h-8.523c-1.263 0-1.895-0.624-1.895-1.871zm-2.454-25.546v-1.871h10.418v1.871l-6.629 7.482h6.629v1.871h-10.418v-1.871l6.63-7.482h-6.63zm2.842-19.936h8.524c1.263 0 1.894 0.624 1.894 1.871v2.806c0 1.248-0.631 1.87-1.894 1.87l1.894 4.677h-2.841l-1.895-4.677h-2.841v4.677h-2.842v-11.224zm-12.313 1.871c0-1.247 0.632-1.871 1.895-1.871h6.63c1.263 0 1.894 0.624 1.894 1.871v9.353h-2.841v-3.742h-4.735v3.742h-2.842v-9.353zm7.577 16.194v11.224h-2.842v-11.224h2.842zm-19.889-18.065h10.418v1.871h-3.788v9.353h-2.841v-9.353h-3.789v-1.871zm0 18.065h2.842v11.224h-2.842v-11.224zm-1.895 19.935h-3.788v9.353h-2.841v-9.353h-3.789v-1.871h10.418v1.871zm0-18.064h-7.576v7.482h7.576v1.871h-8.523c-1.263 0-1.895-0.624-1.895-1.871v-7.482c0-1.247 0.632-1.871 1.895-1.871h8.523v1.871zm0-18.065h-7.576v2.338l5.683 0.936c1.263 0 1.894 0.624 1.894 1.87v2.339c0 1.247-0.631 1.871-1.894 1.871h-8.524v-1.871h7.577v-2.339l-5.683-0.935c-1.263 0-1.895-0.623-1.895-1.87v-2.338c0-1.247 0.632-1.871 1.895-1.871h8.523v1.87zm11.925 43.611c0 1.247-0.631 1.871-1.894 1.871h-6.63c-1.263 0-1.895-0.624-1.895-1.871v-7.482c0-1.247 0.632-1.871 1.895-1.871h6.63c1.263 0 1.894 0.624 1.894 1.871v7.482zm1.335-16.193h-2.841v-9.353h-3.789v-1.871h10.418v1.871h-3.788v9.353zm0.559 16.193v-7.482c0-1.247 0.632-1.871 1.895-1.871h6.63c1.263 0 1.894 0.624 1.894 1.871v7.482c0 1.247-0.631 1.871-1.894 1.871h-6.63c-1.263 0-1.895-0.624-1.895-1.871zm35.043-7.482h-7.576v2.337l5.683 0.936c1.263 0 1.894 0.624 1.894 1.871v2.339c0 1.247-0.631 1.871-1.894 1.871h-8.524v-1.871h7.577v-2.339l-5.683-0.935c-1.263 0-1.895-0.624-1.895-1.871v-2.337c0-1.247 0.632-1.871 1.895-1.871h8.523v1.87zm6.071-8.711l-4.735-8.417v8.417h-1.895v-11.224h3.789l4.735 8.417v-8.417h1.894v11.224h-3.788z"/>
</g>
</svg>
